# xmcd
#
# Track frame offsets:
#	150
#	12167
#	29842
#	48497
#	58205
#	76170
#	97612
#	118597
#	138317
#	157307
#	175140
#	198225
#	217747
#	245392
#	260517
#	285967
#
# Disc length: 4008 seconds
#
# Revision: 0
# Processed by: cddbd v1.5.2PL0 Copyright (c) Steve Scherf et al.
# Submitted via: EasyCDDAExtractor 16.0.6.1
#
DISCID=d60fa610
DTITLE=Σιάτρας Σάββας - Κούγω τον άνεμο κι αχάει-ηρωικά Ηπείρου
DYEAR=2000
DGENRE=Παραδοσιακή
TTITLE0=Σιάτρας Σάββας-χορωδία - Του Ντελή Παπά
TTITLE1=Σιάτρας Σάββας - Του Κατσαντώνη
TTITLE2=Σιάτρας Σάββας - Του Γιαννακού
TTITLE3=Σιάτρας Σάββας-χορωδία - Της κλεφτοπούλας
TTITLE4=Άνευ ερμηνευτού - Αργυροκαστρίτικο κοφτό
TTITLE5=Σιάτρας Σάββας - Κλέφτες Βελτσιστινοί
TTITLE6=Σιάτρας Σάββας - Της Λένης του Μπότσαρη
TTITLE7=Σιάτρας Σάββας-χορωδία - Του Κάστρου της Ωριάς
TTITLE8=Σιάτρας Σάββας - Τα τέσσερα, τα πέντε τα εννιάδελφα
TTITLE9=Σιάτρας Σάββας - Του Αλή Πασά
TTITLE10=Σιάτρας Σάββας-χορωδία - Της Χειμάρρας
TTITLE11=Σιάτρας Σάββας - Του Μίχου Σαμαρνιώτη
TTITLE12=Σιάτρας Σάββας - Μαύρα μου χελιδόνια
TTITLE13=Άνευ ερμηνευτού - Μετσοβίτικος μπεράτης
TTITLE14=Σιάτρας Σάββας - Του λεβέντη και του Χάρου
TTITLE15=Σιάτρας Σάββας - Βασιλαρχόντισσα
EXTD=
EXTT0=
EXTT1=
EXTT2=
EXTT3=
EXTT4=
EXTT5=
EXTT6=
EXTT7=
EXTT8=
EXTT9=
EXTT10=
EXTT11=
EXTT12=
EXTT13=
EXTT14=
EXTT15=
PLAYORDER=
